<svg xmlns="http://www.w3.org/2000/svg" xmlns:xlink="http://www.w3.org/1999/xlink" width="40" height="40" version="1.1" id="Layer_1" x="0px" y="0px" viewBox="0 0 40 40" style="enable-background:new 0 0 40 40;" xml:space="preserve" class=" replaced-svg">
<style type="text/css">
	.st0{fill:#FFFFFF;}
</style>
<g>
	<path class="st0" d="M8.9,27.4c-0.6-1.3-1.1-2.3-1.4-3.1c-0.5,1.3-0.8,2.8-0.4,4.6c0.8,3,3.1,5.1,6.1,5.5c-0.4-0.4-0.8-0.9-1.2-1.5   C12,32.9,10.9,31.4,8.9,27.4z"></path>
	<path class="st0" d="M18.1,29.4c0,0-0.1-0.1-0.1-0.1c-0.2-0.2-0.5-0.3-0.8-0.3c-0.3,0-0.5,0.1-0.8,0.3c0,0-0.1,0.1-0.1,0.1   c-0.2,0.2-0.3,0.5-0.4,0.8c0,0,0,0.1,0,0.1c0,0.1,0,0.1,0,0.2c0,0.2,0.1,0.4,0.2,0.5c0,0.1,0.1,0.1,0.1,0.2   c0.1,0.1,0.2,0.2,0.3,0.2c0.1,0,0.2,0.1,0.3,0.1c0.1,0,0.2,0.1,0.3,0.1c0.1,0,0.2,0,0.3-0.1c0.1,0,0.3-0.1,0.4-0.2   c0.1-0.1,0.2-0.1,0.2-0.2c0.2-0.2,0.4-0.6,0.4-0.9c0-0.3-0.1-0.5-0.3-0.7C18.2,29.5,18.2,29.5,18.1,29.4z"></path>
	<path class="st0" d="M21.6,28.1l-4.3-7.5c-0.6-1-1.5-1.6-3.1-2.5c-0.7-0.3-1.7-1.3-1.3-3c0.8-3.2,2.9-5,4.9-6.3   C19,8,19.1,7.3,19.1,6.6c0-0.4-0.1-1-0.1-1.3C19,5.1,18.9,5,18.8,5c-0.1-0.1-0.2-0.1-0.4-0.1C18.2,4.9,18,5,17.8,5   C7.1,9.4,7.3,17.9,7.6,20.4c0.2,1.8,0.4,3,2.2,6.5c1.9,3.9,3.1,5.3,3.1,5.4c1.8,3,4.7,3.3,6.7,2.2C21.5,33.5,23,31,21.6,28.1z    M19.2,31.1c-0.3,0.8-1.1,1.4-2,1.4c-0.7,0-1.3-0.3-1.7-0.8c-0.2-0.3-0.3-0.6-0.4-0.9c-0.1-0.3-0.1-0.6-0.1-1v-3.1   c0.3-0.2,0.6-0.3,0.9-0.4l0,2.4c0.4-0.3,0.9-0.5,1.4-0.5c0.5,0,1,0.2,1.3,0.5C19.3,29.3,19.5,30.3,19.2,31.1z"></path>
	<path class="st0" d="M33.1,25.3c-0.1-1.8-0.9-3.4-2.4-4.4c-1.6-1.1-3.7-1.4-5.6-1c0.7,0.6,1.2,1.3,1.6,2c0,0,0.6,1.2,0.8,2.3   c0.7,3.4-0.4,6-1.5,7.4c-0.1,0.1-0.2,0.2-0.3,0.4c1.7,0.2,3.6-0.3,5.1-1.3c1-0.7,2.2-2,2.3-4.1C33.1,25.9,33.1,25.3,33.1,25.3z"></path>
	<path class="st0" d="M26.5,24.4c-0.2-1-0.7-2-0.8-2c-1-2-3.7-3.8-6-4.1c-1.3-0.1-2.6-0.1-3.6-0.1c0.8,0.5,1.5,1.1,2,1.9l4.4,7.5   c1.1,2.3,0.7,4.5-0.5,6c1.2-0.6,2.3-1.5,3.2-2.6C26.1,29.7,27.1,27.5,26.5,24.4z"></path>
</g>
</svg>