<svg xmlns="http://www.w3.org/2000/svg" width="40" height="40" fill="none" class=" replaced-svg">
    <path fill-rule="evenodd" clip-rule="evenodd" d="M9 12a8 8 0 1 0 0 16h22a8 8 0 1 0 0-16H9zm0 10a2 2 0 1 1 0-4 2 2 0 0 1 0 4zm-3-2a3 3 0 1 1 6 0 3 3 0 0 1-6 0zm23 0a2 2 0 1 0 4 0 2 2 0 0 0-4 0zm2-3a3 3 0 1 0 0 6 3 3 0 0 0 0-6zm-11 7a4 4 0 1 1 0-8 4 4 0 0 1 0 8zm-5-4a5 5 0 1 1 10 0 5 5 0 0 1-10 0z" fill="#fff"></path>
    <path fill-rule="evenodd" clip-rule="evenodd" d="M9 13a7 7 0 1 0 0 14h22a7 7 0 1 0 0-14H9zm0 10a3 3 0 1 1 0-6 3 3 0 0 1 0 6zm-1-3a1 1 0 1 0 2 0 1 1 0 0 0-2 0zm-3 0a4 4 0 1 1 8 0 4 4 0 0 1-8 0zm4-2a2 2 0 1 0 0 4 2 2 0 0 0 0-4zm21 2a1 1 0 1 0 2 0 1 1 0 0 0-2 0zm1 3a3 3 0 1 1 0-6 3 3 0 0 1 0 6zm0-5a2 2 0 1 0 0 4 2 2 0 0 0 0-4zm-4 2a4 4 0 1 1 8 0 4 4 0 0 1-8 0zm-7 5a5 5 0 1 1 0-10 5 5 0 0 1 0 10zm-3-5a3 3 0 1 0 6 0 3 3 0 0 0-6 0zm-3 0a6 6 0 1 1 12 0 6 6 0 0 1-12 0zm6-4a4 4 0 1 0 0 8 4 4 0 0 0 0-8zM1 20a8 8 0 0 1 8-8h22a8 8 0 1 1 0 16H9a8 8 0 0 1-8-8z" fill="#161616"></path>
    <path d="M6 20a3 3 0 1 1 6 0 3 3 0 0 1-6 0zM15 20a5 5 0 1 1 10 0 5 5 0 0 1-10 0zM28 20a3 3 0 1 1 6 0 3 3 0 0 1-6 0z" fill="#fff"></path>
</svg>